<svg width="194" height="21" viewBox="0 0 194 21" fill="none" xmlns="http://www.w3.org/2000/svg">
<g clip-path="url(#clip0_149_385)">
<path d="M109.4 5.53458H109.418H111.441H111.458C111.807 5.53458 112.055 5.2828 112.055 4.93827V0.600649C112.055 0.251696 111.803 0.00433731 111.458 0.00433731H111.441H109.418H109.4C109.051 0.00433731 108.804 0.256113 108.804 0.600649V4.93827C108.786 5.30489 109.038 5.53458 109.4 5.53458Z" fill="#FA5D20"/>
<path d="M106.678 7.84889L106.696 7.83122L107.95 6.24989L107.968 6.23222C108.18 5.96278 108.14 5.61383 107.871 5.38414L104.479 2.68527C104.209 2.47325 103.86 2.513 103.63 2.78245L103.613 2.80012L102.358 4.38145L102.341 4.39912C102.129 4.66856 102.168 5.01751 102.438 5.24721L105.83 7.94607C106.122 8.15809 106.466 8.11834 106.678 7.84889Z" fill="#FA5D20"/>
<path d="M106.798 11.3959V11.3783L106.357 9.41265V9.39498C106.282 9.04603 105.99 8.87376 105.641 8.95327L101.418 9.9162C101.069 9.99129 100.897 10.2828 100.977 10.6318V10.6494L101.418 12.6151V12.6327C101.493 12.9817 101.785 13.154 102.134 13.0744L106.357 12.1115C106.701 12.032 106.874 11.7449 106.798 11.3959Z" fill="#FA5D20"/>
<path d="M109.651 13.5161L109.633 13.4985L107.822 12.6327L107.805 12.615C107.478 12.4604 107.151 12.5753 107.014 12.9022L105.145 16.7981C104.991 17.1249 105.106 17.4518 105.437 17.5887L105.455 17.6064L107.266 18.4722L107.283 18.4898C107.61 18.6444 107.937 18.5296 108.074 18.2027L109.942 14.3068C110.075 14.002 109.96 13.6707 109.651 13.5161Z" fill="#FA5D20"/>
<path d="M113.08 12.6328L113.063 12.6505L111.252 13.5162L111.234 13.5339C110.907 13.6885 110.81 14.0154 110.947 14.3422L112.837 18.2381C112.992 18.565 113.319 18.6622 113.646 18.5252L113.663 18.5076L115.474 17.6418L115.492 17.6242C115.819 17.4696 115.916 17.1427 115.779 16.8158L113.889 12.9199C113.721 12.593 113.39 12.4782 113.08 12.6328Z" fill="#FA5D20"/>
<path d="M114.512 9.36852V9.38619L114.071 11.3518V11.3695C113.996 11.7184 114.168 12.0055 114.512 12.0851L118.735 13.048C119.084 13.1231 119.371 12.9508 119.451 12.6063V12.5886L119.892 10.623V10.6053C119.967 10.2564 119.795 9.96925 119.451 9.88974L115.228 8.92681C114.897 8.85172 114.605 9.02398 114.512 9.36852Z" fill="#FA5D20"/>
<path d="M112.872 6.22788L112.89 6.24555L114.144 7.82688L114.162 7.84455C114.374 8.114 114.723 8.15375 115.01 7.94173L118.402 5.24286C118.672 5.03084 118.711 4.68189 118.499 4.39478L118.482 4.37711L117.227 2.79578L117.21 2.77811C116.998 2.50866 116.649 2.46891 116.361 2.68093L112.969 5.3798C112.7 5.60949 112.66 5.94077 112.872 6.22788Z" fill="#FA5D20"/>
<path d="M164.98 -0.000202179H167.427C167.524 -0.000202179 167.581 0.039552 167.564 0.136729V2.64566C167.564 2.72075 167.506 2.78259 167.427 2.78259H164.98C164.9 2.78259 164.843 2.72516 164.843 2.64566V0.136729C164.843 0.0572205 164.9 -0.000202179 164.98 -0.000202179Z" fill="#24272A"/>
<path d="M125.217 -0.000400543H127.665C127.74 -0.000400543 127.802 0.0393536 127.802 0.13653V2.64546C127.802 2.72055 127.744 2.78239 127.665 2.78239H125.217C125.142 2.78239 125.081 2.72497 125.081 2.64546V0.13653C125.081 0.0570221 125.138 -0.000400543 125.217 -0.000400543Z" fill="#24272A"/>
<path d="M135.067 8.90032C134.471 8.83848 133.919 8.78106 133.49 8.69713C132.682 8.54253 132.43 8.23333 132.43 7.75187C132.43 7.01862 133.106 6.51949 134.396 6.51949C135.725 6.51949 136.922 7.00095 137.81 7.75187C137.868 7.80929 137.947 7.80929 138.005 7.7342L139.449 6.03802C139.507 5.9806 139.507 5.90109 139.431 5.84367C138.698 5.18552 137.232 4.26234 134.723 4.26234C131.909 4.26234 130.019 5.59189 130.019 7.94622C130.019 9.66448 130.946 10.4728 132.179 10.8969C132.996 11.1707 133.808 11.237 134.586 11.3032C135.076 11.343 135.553 11.3872 136.013 11.4755C136.918 11.6301 137.21 11.9967 137.21 12.5754C137.21 13.366 136.494 13.8475 135.089 13.8475C133.451 13.8475 132.196 13.3263 131.216 12.381C131.158 12.3236 131.061 12.3059 131.004 12.381L129.594 14.0772C129.59 14.086 129.586 14.0993 129.581 14.1081C129.564 14.1567 129.546 14.2009 129.594 14.2318C130.31 14.965 131.83 16.0826 134.86 16.0826C138.371 16.0826 139.758 14.3864 139.758 12.3413C139.683 10.1813 138.217 9.39062 136.945 9.13884C136.335 9.03283 135.681 8.96658 135.067 8.90032Z" fill="#24272A"/>
<path d="M127.608 4.53621H125.293C125.218 4.53621 125.156 4.59363 125.156 4.67314V15.738C125.156 15.8131 125.214 15.875 125.293 15.875H127.608C127.683 15.875 127.745 15.8175 127.745 15.738V4.67314C127.745 4.59363 127.705 4.53621 127.608 4.53621Z" fill="#24272A"/>
<path fill-rule="evenodd" clip-rule="evenodd" d="M148.218 4.16053C146.619 4.16053 145.404 4.69942 144.574 5.58726V4.5669C144.574 4.49181 144.516 4.42997 144.437 4.42997H142.237C142.162 4.42997 142.1 4.48739 142.1 4.5669V20.3979C142.1 20.473 142.158 20.5348 142.237 20.5348H144.552C144.627 20.5348 144.689 20.4774 144.689 20.3979V14.6689C145.519 15.4772 146.676 15.941 148.235 15.941C151.61 15.941 153.845 13.357 153.845 10.0221C153.828 6.76221 151.61 4.16053 148.218 4.16053ZM147.794 13.5513C145.594 13.5513 144.477 11.9877 144.477 10.0618C144.477 8.15361 145.594 6.61203 147.794 6.61203C149.857 6.61203 151.093 8.17569 151.093 10.0618C151.089 11.9877 149.857 13.5513 147.794 13.5513Z" fill="#24272A"/>
<path d="M161.374 4.32864C161.913 4.32864 162.434 4.44348 162.819 4.58041C162.894 4.59808 162.894 4.6555 162.894 4.77477L162.258 7.14676C162.24 7.22185 162.178 7.24394 162.103 7.22185C161.697 7.08492 161.273 7.00983 160.928 7.00983C159.289 7.00983 158.304 8.36147 158.304 9.92072V15.7425C158.304 15.8176 158.247 15.8794 158.167 15.8794H155.853C155.778 15.8794 155.716 15.822 155.716 15.7425V4.68201C155.716 4.60692 155.773 4.54508 155.853 4.54508H158.052C158.128 4.54508 158.189 4.6025 158.189 4.68201V6.0999C159.02 4.73501 160.296 4.32864 161.374 4.32864Z" fill="#24272A"/>
<path fill-rule="evenodd" clip-rule="evenodd" d="M193.809 4.53598H191.61C191.534 4.53598 191.473 4.5934 191.473 4.67291V5.58726C190.625 4.69942 189.428 4.16053 187.829 4.16053C184.454 4.16053 182.219 6.74454 182.219 10.0397C182.219 13.357 184.454 15.9587 187.829 15.9587C189.37 15.9587 190.549 15.4772 191.375 14.6865V15.7643C191.375 17.752 189.852 18.5206 188.465 18.5206C187.153 18.5206 185.938 17.8845 185.284 16.6124C185.267 16.5373 185.147 16.4976 185.09 16.5373L182.93 17.5223C182.872 17.54 182.855 17.6372 182.872 17.6769C183.469 19.086 185.108 20.8396 188.465 20.8396C192.091 20.8396 193.959 18.5824 193.959 15.7687V4.67291C193.946 4.5934 193.889 4.53598 193.809 4.53598ZM188.257 13.5513C186.194 13.5513 184.962 11.9877 184.957 10.0618C184.957 8.15361 186.19 6.61203 188.253 6.61203C190.452 6.61203 191.57 8.17569 191.57 10.0618C191.574 11.9877 190.457 13.5513 188.257 13.5513Z" fill="#24272A"/>
<path d="M165.036 4.53621H167.351C167.426 4.53621 167.488 4.59363 167.488 4.67314V15.738C167.488 15.8131 167.43 15.875 167.351 15.875H165.036C164.957 15.875 164.899 15.8175 164.899 15.738V4.67314C164.899 4.59363 164.957 4.53621 165.036 4.53621Z" fill="#24272A"/>
<path d="M176.327 4.53621C174.905 4.53621 173.769 4.98676 172.957 5.78184V4.66872C172.957 4.59363 172.899 4.53621 172.824 4.53621H170.664C170.589 4.53621 170.532 4.59363 170.532 4.66872V15.7469C170.532 15.822 170.589 15.8794 170.664 15.8794H172.939C173.014 15.8794 173.072 15.822 173.072 15.7469V9.54965C173.072 8.06108 173.867 6.91262 175.514 6.91262C176.897 6.91262 177.824 7.70329 177.824 9.36413V15.7513C177.824 15.8264 177.882 15.8838 177.957 15.8838H180.232C180.307 15.8838 180.364 15.8264 180.364 15.7513V8.74131C180.342 6.43999 179.317 4.53621 176.327 4.53621Z" fill="#24272A"/>
<path d="M8.44996 4.62009L2.53543 11.8863V4.69518C2.53543 4.62892 2.48242 4.57592 2.41617 4.57592H0.119262C0.0530055 4.57592 0 4.62892 0 4.69518V15.8087C0 15.8749 0.0530055 15.9279 0.119262 15.9279H2.13789C2.17323 15.9279 2.20856 15.9103 2.23065 15.8838L8.14518 8.63967V15.8087C8.14518 15.8749 8.19819 15.9279 8.26444 15.9279H10.5613C10.6276 15.9279 10.6806 15.8749 10.6806 15.8087V4.69518C10.6806 4.62892 10.6276 4.57592 10.5613 4.57592H8.54272C8.50739 4.57592 8.47205 4.59358 8.44996 4.62009Z" fill="#24272A"/>
<path d="M21.4535 9.00644H16.0823V4.69533C16.0823 4.62907 16.0293 4.57607 15.963 4.57607H13.6661C13.5999 4.57607 13.5469 4.62907 13.5469 4.69533V15.8088C13.5469 15.8751 13.5999 15.9281 13.6661 15.9281H15.963C16.0293 15.9281 16.0823 15.8751 16.0823 15.8088V11.3475H21.4535V15.8088C21.4535 15.8751 21.5065 15.9281 21.5728 15.9281H23.8697C23.936 15.9281 23.989 15.8751 23.989 15.8088V4.69533C23.989 4.62907 23.936 4.57607 23.8697 4.57607H21.5728C21.5065 4.57607 21.4535 4.62907 21.4535 4.69533V9.00644Z" fill="#24272A"/>
<path d="M35.3008 12.2309C35.2478 12.1955 35.1772 12.2132 35.1374 12.2662C34.4528 13.2468 33.5031 13.7636 32.3811 13.7636C30.1858 13.7636 28.6531 12.3104 28.6531 10.2299C28.6531 8.13619 30.0798 6.67412 32.1205 6.67412C33.3264 6.67412 34.1701 7.08491 34.9166 8.04784C34.9563 8.09643 35.0226 8.10968 35.0756 8.07435L36.7894 6.94798C36.8424 6.91264 36.8601 6.84639 36.8292 6.78896C36.0164 5.25622 34.1833 4.30654 32.0101 4.30654C30.3007 4.30654 28.7591 4.90727 27.6769 6.00271C26.6124 7.07608 26.0293 8.57348 26.0293 10.2211C26.0293 11.9703 26.6124 13.4544 27.7211 14.5101C28.8165 15.5614 30.3492 16.1135 32.1426 16.1135C34.2231 16.1135 36.0562 15.0843 36.9617 13.4147C36.9926 13.3572 36.9749 13.2866 36.9175 13.2556L35.3008 12.2309Z" fill="#24272A"/>
<path d="M37.6284 4.69512V6.81534C37.6284 6.88159 37.6814 6.9346 37.7477 6.9346H41.7098V15.8086C41.7098 15.8749 41.7628 15.9279 41.8291 15.9279H44.126C44.1923 15.9279 44.2453 15.8749 44.2453 15.8086V6.93902H48.2074C48.2737 6.93902 48.3267 6.88601 48.3267 6.81975V4.69953C48.3267 4.63328 48.2737 4.58027 48.2074 4.58027H37.7477C37.6814 4.57585 37.6284 4.62886 37.6284 4.69512Z" fill="#24272A"/>
<path d="M58.239 4.62024L52.3245 11.8864V4.69533C52.3245 4.62907 52.2715 4.57607 52.2052 4.57607H49.9083C49.8421 4.57607 49.7891 4.62907 49.7891 4.69533V15.8088C49.7891 15.8751 49.8421 15.9281 49.9083 15.9281H51.9269C51.9623 15.9281 51.9976 15.9104 52.0197 15.8839L57.9342 8.63982V15.8088C57.9342 15.8751 57.9872 15.9281 58.0535 15.9281H60.3504C60.4167 15.9281 60.4697 15.8751 60.4697 15.8088V4.69533C60.4697 4.62907 60.4167 4.57607 60.3504 4.57607H58.3318C58.2964 4.57607 58.2611 4.59373 58.239 4.62024Z" fill="#24272A"/>
<path d="M61.9502 4.69512V6.81534C61.9502 6.88159 62.0032 6.9346 62.0695 6.9346H66.0316V15.8086C66.0316 15.8749 66.0846 15.9279 66.1509 15.9279H68.4478C68.514 15.9279 68.567 15.8749 68.567 15.8086V6.93902H72.5292C72.5955 6.93902 72.6485 6.88601 72.6485 6.81975V4.69953C72.6485 4.63328 72.5955 4.58027 72.5292 4.58027H62.065C62.0032 4.57585 61.9502 4.62886 61.9502 4.69512Z" fill="#24272A"/>
<path d="M82.8443 4.65116L79.8937 12.1559L76.0596 4.64232C76.0375 4.60257 75.9978 4.57607 75.9536 4.57607H73.2901C73.2017 4.57607 73.1399 4.67324 73.1841 4.75275L78.6701 15.2302L78.2858 16.2373C77.769 17.5138 77.2125 18.1057 76.5322 18.1101C76.3511 18.1101 76.1877 18.0527 76.0949 18.0085C76.0508 17.9865 75.9978 18.0085 75.9757 18.0527L75.0525 20.0448C75.0304 20.0934 75.0525 20.1464 75.1011 20.1685C75.3264 20.2569 75.958 20.4777 76.6162 20.4733C78.5111 20.4645 79.6552 19.2409 81.1393 15.588L85.5211 4.74392C85.552 4.66441 85.4946 4.58048 85.4107 4.58048H82.9547C82.9062 4.57607 82.862 4.60698 82.8443 4.65116Z" fill="#24272A"/>
<path d="M85.9873 4.69512V6.81534C85.9873 6.88159 86.0403 6.9346 86.1066 6.9346H90.0687V15.8086C90.0687 15.8749 90.1217 15.9279 90.188 15.9279H92.4849C92.5512 15.9279 92.6042 15.8749 92.6042 15.8086V6.93902H96.5663C96.6326 6.93902 96.6856 6.88601 96.6856 6.81975V4.69953C96.6856 4.63328 96.6326 4.58027 96.5663 4.58027H86.1021C86.0403 4.57585 85.9873 4.62886 85.9873 4.69512Z" fill="#24272A"/>
</g>
<defs>
<clipPath id="clip0_149_385">
<rect width="193.965" height="20.84" fill="white"/>
</clipPath>
</defs>
</svg>
